<svg width="180" height="180" viewBox="0 0 180 180" fill="none" xmlns="http://www.w3.org/2000/svg">
<path d="M24.2191 130.928L89.9956 89.9194L89.9043 172.083L24.2191 130.928Z" fill="#A42EFF"/>
<path d="M155.681 48.801L89.9497 89.8828V172.046L155.681 130.965V48.801Z" fill="#FFF200"/>
<path d="M89.95 89.8827L24.2191 130.964V48.8009L89.95 7.71912V89.8827Z" fill="#21DFF3"/>
<path d="M155.681 48.8009L89.95 89.8827L24.2191 48.8009L89.95 7.71912L155.681 48.8009Z" fill="#FF0078"/>
<path fill-rule="evenodd" clip-rule="evenodd" d="M86.6538 2.44531C88.6705 1.1849 91.2294 1.1849 93.2461 2.44531L158.977 43.5271C160.795 44.6636 161.9 46.6566 161.9 48.8009V130.964C161.9 133.109 160.795 135.102 158.977 136.238L93.2461 177.32C91.2294 178.58 88.6705 178.58 86.6538 177.32L20.9371 136.247C20.9324 136.244 20.9277 136.241 20.923 136.238C19.1046 135.102 18 133.109 18 130.964V48.8009C18 46.6566 19.1046 44.6636 20.923 43.5271L86.6538 2.44531ZM30.4382 60.0217L78.2158 89.8827L30.4382 119.744V60.0217ZM35.9533 130.964L93.2461 95.1565C95.0644 94.02 96.1691 92.027 96.1691 89.8827C96.1691 87.7384 95.0644 85.7454 93.2461 84.6089L35.9533 48.8009L89.95 15.053L149.462 52.2478V127.518L89.95 164.712L35.9533 130.964Z" fill="black"/>
<path fill-rule="evenodd" clip-rule="evenodd" d="M96.1688 93.3297L158.977 54.0748L152.384 43.5272L86.6536 84.609C84.8352 85.7455 83.7306 87.7385 83.7306 89.8828V172.046H96.1688V93.3297Z" fill="black"/>
</svg>
